<svg width="22" height="22" viewBox="0 0 15 13" fill="none" xmlns="http://www.w3.org/2000/svg">
<path fill-rule="evenodd" clip-rule="evenodd" d="M13.8692 0.845601C13.9438 0.902247 14.0065 0.973051 14.0537 1.05396C14.101 1.13487 14.1318 1.2243 14.1444 1.31713C14.157 1.40996 14.1512 1.50436 14.1273 1.59494C14.1034 1.68552 14.0618 1.77049 14.005 1.845L6.40504 11.82C6.34339 11.9008 6.26517 11.9675 6.17563 12.0156C6.08609 12.0636 5.9873 12.092 5.8859 12.0987C5.78449 12.1055 5.68281 12.0905 5.58769 12.0547C5.49257 12.0189 5.4062 11.9632 5.33439 11.8913L1.05939 7.61625C0.933535 7.48118 0.865018 7.30254 0.868275 7.11795C0.871532 6.93337 0.946308 6.75725 1.07685 6.62671C1.20739 6.49617 1.38351 6.42139 1.56809 6.41813C1.75268 6.41488 1.93133 6.4834 2.06639 6.60925L5.76569 10.3076L12.8717 0.981451C12.9861 0.831306 13.1553 0.732673 13.3423 0.707204C13.5294 0.681734 13.7188 0.731508 13.8692 0.845601Z" fill="#FFD21B"/>
</svg>
